PathFileType	4	(X/Y/Z)	51_2_84_p0_0-260_filt_butterworth.trc
DataRate	CameraRate	NumFrames	NumMarkers	Units	OrigDataRate	OrigDataStartFrame	OrigNumFrames
50.0	50.0	5	27	m	50.0	65	260
Frame#	Time	RHip			RKnee			RAnkle			RBigToe			RSmallToe			RHeel			LHip			LKnee			LAnkle			LBigToe			LSmallToe			LHeel			Neck			Head			Nose			RShoulder			RElbow			RWrist			RThumb			RIndex			RPinky			LShoulder			LElbow			LWrist			LThumb			LIndex			LPinky			
		X1	Y1	Z1	X2	Y2	Z2	X3	Y3	Z3	X4	Y4	Z4	X5	Y5	Z5	X6	Y6	Z6	X7	Y7	Z7	X8	Y8	Z8	X9	Y9	Z9	X10	Y10	Z10	X11	Y11	Z11	X12	Y12	Z12	X13	Y13	Z13	X14	Y14	Z14	X15	Y15	Z15	X16	Y16	Z16	X17	Y17	Z17	X18	Y18	Z18	X19	Y19	Z19	X20	Y20	Z20	X21	Y21	Z21	X22	Y22	Z22	X23	Y23	Z23	X24	Y24	Z24	X25	Y25	Z25	X26	Y26	Z26	X27	Y27	Z27	
65	1.3	0.10403734710401165	0.5381047890252498	0.638156931167729	0.1002872108610713	0.5728311295141003	1.0435443085735057	0.09001745661171753	0.6168649202657599	1.4567849199987872	0.05074032585161793	0.5155667909140793	1.5141920113461058	0.10977504544279934	0.5053996905652234	1.5067256868147267	0.07313906573254828	0.6328524308179132	1.5022711554138155	-0.09584363750266175	0.48429863303552734	0.6276215993436371	-0.1321736167132428	0.5583657512589396	1.0380174635242918	-0.13590966936778306	0.6323194277783757	1.4951457603605567	-0.09843067540425679	0.4843967039413606	1.5107645159816614	-0.16145593443016687	0.5093307489726274	1.508085096512702	-0.12311376433380976	0.6524426265109782	1.5247126662163657	0.016442966271101228	0.25023630661007235	0.1016022993075052	-0.005785242572885252	0.1110975981540331	-0.13057982761355774	-0.0031111075491219277	0.08674741929316368	0.004727510352155609	0.1729222932945916	0.30271081743124073	0.15761804405061947	0.194346393743273	0.537505981924218	0.3782137042742315	0.1286212016945036	0.2822022913343391	0.4541263306237874	0.06831471773006813	0.14960277550230022	0.44735860182651827	0.07292135740332287	0.13894284671095414	0.46395333543510964	0.07943324937337275	0.24106181950441108	0.5148300295238948	-0.12800109416447164	0.28942049959817345	0.1548858145082502	-0.2367476442404578	0.5234779519896187	0.33332665706442355	-0.15515465119172844	0.38146390050436285	0.4703619810164016	-0.10803302379839888	0.2843868365485099	0.47248688639137026	-0.12000813599855492	0.23839971005943897	0.4919928397558925	-0.13355291186943227	0.3331541594346512	0.5483634123752992
66	1.32	0.10568703486273939	0.5362179386188454	0.6361588918326355	0.09768874337774722	0.579931591941988	1.044575584320252	0.09246141923670603	0.6169672608086832	1.454306666880932	0.05106466566676259	0.5193969119467041	1.5147080949446172	0.11081022486438745	0.5077326985936452	1.506343774481876	0.07711030234394123	0.6356935865967112	1.499857668208582	-0.10304007991779135	0.4910635144243633	0.6296029746736624	-0.13217614806007738	0.5646376816534179	1.0378941026854525	-0.1353751771914281	0.6327478086556507	1.4932859592132606	-0.09898741853726074	0.4810239137326603	1.5081253989804826	-0.16327319709570054	0.5178208432475714	1.5119197028165927	-0.12328150765529751	0.6532234074812822	1.525972493279065	0.008415384728967478	0.25231263060404496	0.09505256395966384	-0.011345146737082088	0.1114030364725226	-0.13381437285836587	-0.008631496699371726	0.09313637015951948	0.0021348451625797567	0.16434450304254142	0.29434569517101267	0.15269034033547108	0.1968639654073678	0.5471068268606885	0.3633992436167137	0.13897170840323872	0.30738745646732973	0.47219884248250454	0.06912836127636351	0.18552368787075263	0.46479686842853163	0.07876199981006043	0.17582436234370122	0.48734595334493447	0.09100539685666353	0.2826176658282173	0.5377974143938716	-0.13003058274130808	0.28891655259336846	0.15599333307640223	-0.2346019424244815	0.5127426131490452	0.3398725119483774	-0.14622669543482966	0.343699473127684	0.4627467883181794	-0.09315555793505226	0.2502616034591236	0.4622333542734448	-0.10839000644039475	0.19566168096353082	0.4754494386141052	-0.12316985972481835	0.2894244713152487	0.5311533058507918
67	1.34	0.10346671701377926	0.5358778701784719	0.6341138239170534	0.09637901623507555	0.5739923918460001	1.043477329445498	0.09352549744297972	0.6181440254127859	1.4564789266009823	0.052119842247579935	0.5208861105383873	1.515106360875644	0.1140366545289503	0.504069337773974	1.5041557011533229	0.08079171932367203	0.6415584544766126	1.501265175133907	-0.11045545362410401	0.5049650637154425	0.6317563474802783	-0.1327786505320229	0.5716415337898098	1.0413524888483496	-0.13513289183720012	0.6331223300650831	1.492330883261912	-0.09954923682025144	0.47973651859540156	1.5062533606523152	-0.16265023203629506	0.5214135834117615	1.5139654907445022	-0.12455709886491843	0.6528051056835582	1.5295292830803373	-0.001624946456008616	0.2514802158233498	0.0928489867456815	-0.015298366614236699	0.11253696226497575	-0.13463830338812988	-0.01319304267819346	0.09327134674961962	0.00030194579567898957	0.15101093799614856	0.2793706888652695	0.15063576457029407	0.20084908413439168	0.5457777851963584	0.34581206749121823	0.14713249554260296	0.3446312893075818	0.48303008887591725	0.07114182392305461	0.2417515292777419	0.48218405547020665	0.08487035270380278	0.2289627720827797	0.5055091238955326	0.10281295820244411	0.32005874206333235	0.5523845914106937	-0.13248228387183886	0.28627091369049623	0.15982409073806933	-0.2282617275411116	0.4938858857304035	0.3507214876312316	-0.13841422844187648	0.29825507183411004	0.4468992976133508	-0.08328430442175647	0.20748822553931726	0.4439091173746755	-0.09802709066892507	0.15810590107362107	0.45545243433039934	-0.11097249648939317	0.24189473295239589	0.5027064870391886
68	1.36	0.09622962101299024	0.5385295225888623	0.6337724434969877	0.0935826080090472	0.5465108570053486	1.0373830614232158	0.09352526211301238	0.621039098218624	1.4613934764149334	0.053666870630539654	0.5196439239103869	1.5156245736073295	0.11722364881704662	0.4950124921586357	1.5007834982619386	0.08282573650044846	0.6475851128392297	1.5071519637119182	-0.11734709358898204	0.5214809764411632	0.6343577362587991	-0.13438726812881052	0.5765084267663177	1.0472413432971288	-0.13559269066436286	0.6331021829127992	1.4946062066322696	-0.09989404146348925	0.48054345314331093	1.508530040594353	-0.15970936692831045	0.5172447974221285	1.5124314196494126	-0.12690567916289672	0.6500394784862659	1.5352086144178654	-0.012927414550110632	0.24789794299189166	0.09616252979805683	-0.018926256351675837	0.11341862061688798	-0.13250927209155852	-0.018018092440544677	0.09094850592891829	0.00022864581077377175	0.13716861989522813	0.26282178331384604	0.1508073865593404	0.2043657383147631	0.5481762348376202	0.32513722522569377	0.14825005240336958	0.39486104585517123	0.48556826772693606	0.080363334467159	0.2947788464083517	0.49663126666200025	0.09196185005682798	0.287157989785721	0.5147619087627517	0.11152734792235303	0.35379378165783415	0.5558687153628118	-0.13650082590711154	0.2783456372846227	0.1640374567887533	-0.21526219271872568	0.4652554914737389	0.3690498829161972	-0.1301072491962056	0.24695536616663982	0.42220527910029293	-0.08254784575588302	0.16194824375544764	0.4134468544958298	-0.0915704378928779	0.1291412191523293	0.4258176868232654	-0.09715947342884154	0.19250584996451203	0.46377761220128755
69	1.38	0.08760075543659365	0.5418915075687214	0.6349941510968625	0.09030575330593943	0.5025380230563316	1.0265389339977498	0.09217732213779628	0.6226663127305075	1.4641735694764686	0.054498186040321125	0.5154939732316126	1.5153658069765643	0.11738476900987169	0.48588762998980534	1.4976054134862813	0.08289794816909113	0.650096916285811	1.5130931364542348	-0.12353011024735823	0.532266752501841	0.638233161155066	-0.1361731210058384	0.5756745842470976	1.0514840654468405	-0.13617706572646573	0.632582491490063	1.5000637667607055	-0.09941981509015514	0.48041429830085564	1.5129358522207035	-0.15527361200684978	0.5062193448368496	1.5085605422358423	-0.129360044312138	0.6462788187592925	1.5403442798085742	-0.022724307635284713	0.24279918933113537	0.10303797620521425	-0.02219919439583436	0.11372783031833927	-0.12760018446852536	-0.022772562288252637	0.09008128347318937	0.002657529857992732	0.12690309634432553	0.2524271001071555	0.15321109504621014	0.20483305418883718	0.5525752374723101	0.3035863689242814	0.14474950296495143	0.43832322774704124	0.4799088116610999	0.09511004670819101	0.3218827208082832	0.5036600311448326	0.0976808695210477	0.32777232371051007	0.5133864161916943	0.11783150364727998	0.38745203510324905	0.5509221551009353	-0.14100690856729797	0.2675765767955405	0.16816127137674508	-0.19925793817109635	0.4336176873029888	0.3939411989249755	-0.12008290184585749	0.19805709244294048	0.39511742356722973	-0.08649186648489413	0.12278291687250337	0.3762848551210186	-0.0869441405321989	0.10365483429407338	0.3865258082142039	-0.08878563653945519	0.15175041368683126	0.4232183094035794
